#Comment line ignore any data following # character 
#Hierarchical Translation and Rotation (.htr) file 
[Header]	
#Header keywords are followed by a single value 
FileType HTR		#Single word string
DataType HTRS		#Translation followed by rotation and scale data
FileVersion 1		#integer
NumSegments 84		#integer
NumFrames 2		#integer
DataFrameRate 30		#integer, data frame rate in this file
EulerRotationOrder ZYX
CalibrationUnits mm
RotationUnits Degrees
GlobalAxisofGravity Y
BoneLengthAxis Y
ScaleFactor 1.00
[SegmentNames&Hierarchy]
#CHILD	PARENT
MASTER GLOBAL
root MASTER
chest root
L_mid_tent01 root
R_mid_tent01 root
spine01 root
Bip01_Neck chest
L_humerus chest
R_humerus chest
weapon_bone chest
Bip01_Head Bip01_Neck
eye_left_bone Bip01_Head
eye_right_bone Bip01_Head
L_forearm L_humerus
L_front_hand L_forearm
L_weapon_bone L_forearm
L_front_hand01_01 L_front_hand
L_front_hand02_01 L_front_hand
L_front_hand03_01 L_front_hand
L_front_hand01_02 L_front_hand01_01
L_front_hand02_02 L_front_hand02_01
L_front_hand03_02 L_front_hand03_01
R_forearm R_humerus
R_front_hand R_forearm
R_weapon_bone R_forearm
R_front_hand01_01 R_front_hand
R_front_hand02_01 R_front_hand
R_front_hand03_01 R_front_hand
R_front_hand01_02 R_front_hand01_01
R_front_hand02_02 R_front_hand02_01
R_front_hand03_02 R_front_hand03_01
null_rope01_connect L_mid_tent01
Rope1_Seg01 null_rope01_connect
Rope1_Seg02 Rope1_Seg01
Rope1_Seg03 Rope1_Seg02
Rope1_Seg04 Rope1_Seg03
Rope1_Seg05 Rope1_Seg04
Rope1_Seg06 Rope1_Seg05
Rope1_Seg07 Rope1_Seg06
Rope1_Seg09 Rope1_Seg07
L_mid_hand01 Rope1_Seg09
L_mid_hand02 Rope1_Seg09
L_mid_hand03 Rope1_Seg09
null_rope02_connect R_mid_tent01
Rope2_Seg01 null_rope02_connect
Rope2_Seg02 Rope2_Seg01
Rope2_Seg03 Rope2_Seg02
Rope2_Seg04 Rope2_Seg03
Rope2_Seg05 Rope2_Seg04
Rope2_Seg06 Rope2_Seg05
Rope2_Seg07 Rope2_Seg06
Rope2_Seg09 Rope2_Seg07
R_mid_hand01 Rope2_Seg09
R_mid_hand02 Rope2_Seg09
R_mid_hand03 Rope2_Seg09
spine02 spine01
spine03 spine02
pelvis spine03
null_rope03_connect pelvis
null_rope04_connect pelvis
Rope3_Seg01 null_rope03_connect
Rope3_Seg02 Rope3_Seg01
Rope3_Seg03 Rope3_Seg02
Rope3_Seg04 Rope3_Seg03
Rope3_Seg05 Rope3_Seg04
Rope3_Seg06 Rope3_Seg05
Rope3_Seg07 Rope3_Seg06
Rope3_Seg08 Rope3_Seg07
Rope3_Seg09 Rope3_Seg08
R_rear_hand01 Rope3_Seg09
R_rear_hand02 Rope3_Seg09
R_rear_hand03 Rope3_Seg09
Rope4_Seg01 null_rope04_connect
Rope4_Seg02 Rope4_Seg01
Rope4_Seg03 Rope4_Seg02
Rope4_Seg04 Rope4_Seg03
Rope4_Seg05 Rope4_Seg04
Rope4_Seg06 Rope4_Seg05
Rope4_Seg07 Rope4_Seg06
Rope4_Seg08 Rope4_Seg07
Rope4_Seg09 Rope4_Seg08
L_rear_hand01 Rope4_Seg09
L_rear_hand02 Rope4_Seg09
L_rear_hand03 Rope4_Seg09
[BasePosition]
#SegmentName Tx, Ty, Tz, Rx, Ry, Rz, BoneLength
MASTER 0.000000 0.000000 0.000000 -90.000000 0.000000 0.000000 10.000000 
root 0.000000 0.000000 0.000000 0.000000 0.000000 0.000000 10.000000 
chest 0.000000 0.000000 0.000000 0.000000 0.000000 0.000000 10.000000 
L_mid_tent01 0.000000 0.000000 0.000000 0.000000 0.000000 0.000000 10.000000 
R_mid_tent01 0.000000 0.000000 0.000000 0.000000 0.000000 0.000000 10.000000 
spine01 0.000000 0.000000 0.000000 0.000000 0.000000 0.000000 10.000000 
Bip01_Neck 0.000000 0.000000 0.000000 0.000000 0.000000 0.000000 10.000000 
L_humerus 0.000000 0.000000 0.000000 0.000000 0.000000 0.000000 10.000000 
R_humerus 0.000000 0.000000 0.000000 0.000000 0.000000 0.000000 10.000000 
weapon_bone 0.000000 0.000000 0.000000 0.000000 0.000000 0.000000 10.000000 
Bip01_Head 0.000000 0.000000 0.000000 0.000000 0.000000 0.000000 10.000000 
eye_left_bone 0.000000 0.000000 0.000000 0.000000 0.000000 0.000000 10.000000 
eye_right_bone 0.000000 0.000000 0.000000 0.000000 0.000000 0.000000 10.000000 
L_forearm 0.000000 0.000000 0.000000 0.000000 0.000000 0.000000 10.000000 
L_front_hand 0.000000 0.000000 0.000000 0.000000 0.000000 0.000000 10.000000 
L_weapon_bone 0.000000 0.000000 0.000000 0.000000 0.000000 0.000000 10.000000 
L_front_hand01_01 0.000000 0.000000 0.000000 0.000000 0.000000 0.000000 10.000000 
L_front_hand02_01 0.000000 0.000000 0.000000 0.000000 0.000000 0.000000 10.000000 
L_front_hand03_01 0.000000 0.000000 0.000000 0.000000 0.000000 0.000000 10.000000 
L_front_hand01_02 0.000000 0.000000 0.000000 0.000000 0.000000 0.000000 10.000000 
L_front_hand02_02 0.000000 0.000000 0.000000 0.000000 0.000000 0.000000 10.000000 
L_front_hand03_02 0.000000 0.000000 0.000000 0.000000 0.000000 0.000000 10.000000 
R_forearm 0.000000 0.000000 0.000000 0.000000 0.000000 0.000000 10.000000 
R_front_hand 0.000000 0.000000 0.000000 0.000000 0.000000 0.000000 10.000000 
R_weapon_bone 0.000000 0.000000 0.000000 0.000000 0.000000 0.000000 10.000000 
R_front_hand01_01 0.000000 0.000000 0.000000 0.000000 0.000000 0.000000 10.000000 
R_front_hand02_01 0.000000 0.000000 0.000000 0.000000 0.000000 0.000000 10.000000 
R_front_hand03_01 0.000000 0.000000 0.000000 0.000000 0.000000 0.000000 10.000000 
R_front_hand01_02 0.000000 0.000000 0.000000 0.000000 0.000000 0.000000 10.000000 
R_front_hand02_02 0.000000 0.000000 0.000000 0.000000 0.000000 0.000000 10.000000 
R_front_hand03_02 0.000000 0.000000 0.000000 0.000000 0.000000 0.000000 10.000000 
null_rope01_connect 0.000000 0.000000 0.000000 0.000000 0.000000 0.000000 10.000000 
Rope1_Seg01 0.000000 0.000000 0.000000 0.000000 0.000000 0.000000 10.000000 
Rope1_Seg02 0.000000 0.000000 0.000000 0.000000 0.000000 0.000000 10.000000 
Rope1_Seg03 0.000000 0.000000 0.000000 0.000000 0.000000 0.000000 10.000000 
Rope1_Seg04 0.000000 0.000000 0.000000 0.000000 0.000000 0.000000 10.000000 
Rope1_Seg05 0.000000 0.000000 0.000000 0.000000 0.000000 0.000000 10.000000 
Rope1_Seg06 0.000000 0.000000 0.000000 0.000000 0.000000 0.000000 10.000000 
Rope1_Seg07 0.000000 0.000000 0.000000 0.000000 0.000000 0.000000 10.000000 
Rope1_Seg09 0.000000 0.000000 0.000000 0.000000 0.000000 0.000000 10.000000 
L_mid_hand01 0.000000 0.000000 0.000000 0.000000 0.000000 0.000000 10.000000 
L_mid_hand02 0.000000 0.000000 0.000000 0.000000 0.000000 0.000000 10.000000 
L_mid_hand03 0.000000 0.000000 0.000000 0.000000 0.000000 0.000000 10.000000 
null_rope02_connect 0.000000 0.000000 0.000000 0.000000 0.000000 0.000000 10.000000 
Rope2_Seg01 0.000000 0.000000 0.000000 0.000000 0.000000 0.000000 10.000000 
Rope2_Seg02 0.000000 0.000000 0.000000 0.000000 0.000000 0.000000 10.000000 
Rope2_Seg03 0.000000 0.000000 0.000000 0.000000 0.000000 0.000000 10.000000 
Rope2_Seg04 0.000000 0.000000 0.000000 0.000000 0.000000 0.000000 10.000000 
Rope2_Seg05 0.000000 0.000000 0.000000 0.000000 0.000000 0.000000 10.000000 
Rope2_Seg06 0.000000 0.000000 0.000000 0.000000 0.000000 0.000000 10.000000 
Rope2_Seg07 0.000000 0.000000 0.000000 0.000000 0.000000 0.000000 10.000000 
Rope2_Seg09 0.000000 0.000000 0.000000 0.000000 0.000000 0.000000 10.000000 
R_mid_hand01 0.000000 0.000000 0.000000 0.000000 0.000000 0.000000 10.000000 
R_mid_hand02 0.000000 0.000000 0.000000 0.000000 0.000000 0.000000 10.000000 
R_mid_hand03 0.000000 0.000000 0.000000 0.000000 0.000000 0.000000 10.000000 
spine02 0.000000 0.000000 0.000000 0.000000 0.000000 0.000000 10.000000 
spine03 0.000000 0.000000 0.000000 0.000000 0.000000 0.000000 10.000000 
pelvis 0.000000 0.000000 0.000000 0.000000 0.000000 0.000000 10.000000 
null_rope03_connect 0.000000 0.000000 0.000000 0.000000 0.000000 0.000000 10.000000 
null_rope04_connect 0.000000 0.000000 0.000000 0.000000 0.000000 0.000000 10.000000 
Rope3_Seg01 0.000000 0.000000 0.000000 0.000000 0.000000 0.000000 10.000000 
Rope3_Seg02 0.000000 0.000000 0.000000 0.000000 0.000000 0.000000 10.000000 
Rope3_Seg03 0.000000 0.000000 0.000000 0.000000 0.000000 0.000000 10.000000 
Rope3_Seg04 0.000000 0.000000 0.000000 0.000000 0.000000 0.000000 10.000000 
Rope3_Seg05 0.000000 0.000000 0.000000 0.000000 0.000000 0.000000 10.000000 
Rope3_Seg06 0.000000 0.000000 0.000000 0.000000 0.000000 0.000000 10.000000 
Rope3_Seg07 0.000000 0.000000 0.000000 0.000000 0.000000 0.000000 10.000000 
Rope3_Seg08 0.000000 0.000000 0.000000 0.000000 0.000000 0.000000 10.000000 
Rope3_Seg09 0.000000 0.000000 0.000000 0.000000 0.000000 0.000000 10.000000 
R_rear_hand01 0.000000 0.000000 0.000000 0.000000 0.000000 0.000000 10.000000 
R_rear_hand02 0.000000 0.000000 0.000000 0.000000 0.000000 0.000000 10.000000 
R_rear_hand03 0.000000 0.000000 0.000000 0.000000 0.000000 0.000000 10.000000 
Rope4_Seg01 0.000000 0.000000 0.000000 0.000000 0.000000 0.000000 10.000000 
Rope4_Seg02 0.000000 0.000000 0.000000 0.000000 0.000000 0.000000 10.000000 
Rope4_Seg03 0.000000 0.000000 0.000000 0.000000 0.000000 0.000000 10.000000 
Rope4_Seg04 0.000000 0.000000 0.000000 0.000000 0.000000 0.000000 10.000000 
Rope4_Seg05 0.000000 0.000000 0.000000 0.000000 0.000000 0.000000 10.000000 
Rope4_Seg06 0.000000 0.000000 0.000000 0.000000 0.000000 0.000000 10.000000 
Rope4_Seg07 0.000000 0.000000 0.000000 0.000000 0.000000 0.000000 10.000000 
Rope4_Seg08 0.000000 0.000000 0.000000 0.000000 0.000000 0.000000 10.000000 
Rope4_Seg09 0.000000 0.000000 0.000000 0.000000 0.000000 0.000000 10.000000 
L_rear_hand01 0.000000 0.000000 0.000000 0.000000 0.000000 0.000000 10.000000 
L_rear_hand02 0.000000 0.000000 0.000000 0.000000 0.000000 0.000000 10.000000 
L_rear_hand03 0.000000 0.000000 0.000000 0.000000 0.000000 0.000000 10.000000 
#Beginning of Data. Separated by tabs
#Fr	Tx	Ty	Tz	Rx	Ry	Rz	SF
[MASTER]
29 0.000000 0.000000 0.000000 0.001660 0.001660 0.001660 0.000000
30 0.000000 0.000000 0.000000 0.001660 0.001660 0.001660 0.000000
[root]
29 -16.502302 -1.914876 1456.394775 -91.809685 -14.087755 -89.396698 1456.489624
30 -16.502304 9.364137 1448.320068 -91.728912 -11.584503 -89.471642 1448.444336
[chest]
29 -84.512650 -34.090519 0.000000 -2.172939 -0.293935 170.887589 91.129311
30 -84.512650 -34.090519 0.000000 -2.170494 -0.006436 168.239609 91.129311
[L_mid_tent01]
29 27.299105 22.179090 -249.918716 -19.679878 16.187124 20.267601 252.381699
30 27.299099 22.179106 -249.918732 -20.661398 12.026046 12.983024 252.381714
[R_mid_tent01]
29 23.228794 24.509907 226.238495 -166.816681 -22.909630 29.935715 228.744751
30 23.228794 24.509907 226.238495 -165.192215 -17.956036 24.056789 228.744751
[spine01]
29 -0.361383 -0.195265 0.000000 0.001932 0.001333 20.788477 0.410763
30 -0.361383 -0.195265 0.000000 0.001947 0.001312 22.051847 0.410763
[Bip01_Neck]
29 165.484543 71.581718 0.000119 176.643677 -1.657967 43.431911 180.302734
30 165.484543 71.581718 0.000119 176.643677 -1.657967 43.431919 180.302734
[L_humerus]
29 -13.983130 -135.272980 -120.471481 4.842252 79.152473 94.810425 181.680161
30 -13.983130 -135.272980 -120.471481 -5.480137 68.873428 84.573517 181.680161
[R_humerus]
29 -13.983309 -135.273102 125.287651 39.225098 -80.697227 56.236156 184.909012
30 -13.983309 -135.273102 125.287651 27.897175 -69.888847 67.752357 184.909012
[weapon_bone]
29 235.964890 -300.705902 0.000000 0.000000 -89.951546 -128.212341 382.234833
30 235.964890 -300.705902 0.000000 0.000000 -89.951546 -128.212341 382.234833
[Bip01_Head]
29 213.444153 185.715317 11.776949 4.962490 2.797846 -43.898743 283.173615
30 213.444122 185.715256 11.776947 4.962491 2.797846 -43.898750 283.173523
[eye_left_bone]
29 -24.626970 125.451866 -64.772606 0.000000 -90.000000 -99.840431 143.318359
30 -24.626970 125.451866 -64.772606 0.000000 -90.000000 -99.840431 143.318359
[eye_right_bone]
29 -24.626970 125.451866 64.327362 0.000000 -89.965736 80.156380 143.117676
30 -24.626970 125.451866 64.327362 0.000000 -90.000000 80.156387 143.117676
[L_forearm]
29 322.776093 0.000000 -0.000119 0.000358 -0.002320 -107.561203 322.776093
30 322.776093 0.000000 -0.000119 0.000396 -0.002314 -109.419975 322.776093
[L_front_hand]
29 241.149185 -0.042021 -3.300071 -178.667953 -1.835447 -27.422350 241.171753
30 241.149185 -0.042021 -3.300071 -178.667953 -1.835448 -27.422352 241.171753
[L_weapon_bone]
29 156.183838 0.000000 0.000000 0.000014 0.000007 0.000001 156.183838
30 156.183838 0.000000 0.000000 0.000014 0.000007 0.000001 156.183838
[L_front_hand01_01]
29 86.095154 20.947098 -0.655860 -0.366594 -0.477154 75.385574 88.609184
30 86.095154 20.947098 -0.655860 -0.366594 -0.477154 75.385582 88.609184
[L_front_hand02_01]
29 86.935165 -11.437475 24.513514 154.399796 -59.883835 -61.369587 91.046425
30 86.935165 -11.437475 24.513514 154.399826 -59.883846 -61.369614 91.046425
[L_front_hand03_01]
29 86.637497 -14.123976 -20.424902 -153.913849 58.118122 -62.702866 90.126129
30 86.637497 -14.123976 -20.424902 -153.913864 58.118141 -62.702885 90.126129
[L_front_hand01_02]
29 71.020905 -0.000179 0.000030 0.000334 -0.002323 -106.379684 71.020905
30 71.020905 -0.000179 0.000030 0.000334 -0.002323 -106.379700 71.020905
[L_front_hand02_02]
29 71.020927 -0.000119 0.000060 0.000334 -0.002323 -106.379684 71.020927
30 71.020927 -0.000119 0.000060 0.000334 -0.002323 -106.379700 71.020927
[L_front_hand03_02]
29 71.020905 -0.000060 0.000060 0.000334 -0.002323 -106.379684 71.020905
30 71.020905 -0.000060 0.000060 0.000334 -0.002323 -106.379700 71.020905
[R_forearm]
29 322.776428 -0.000060 0.000030 0.204126 0.054918 -106.187859 322.776428
30 322.776428 -0.000060 0.000030 0.202103 0.065158 -108.062820 322.776428
[R_front_hand]
29 238.847015 -0.006795 2.210259 -2.635298 -10.645461 -26.312506 238.857239
30 238.847015 -0.006795 2.210259 -2.635299 -10.645463 -26.312508 238.857239
[R_weapon_bone]
29 155.664093 0.002503 -0.000030 0.003487 0.001180 -90.988930 155.664078
30 155.664093 0.002503 -0.000030 0.003487 0.001180 -90.988930 155.664078
[R_front_hand01_01]
29 87.624611 14.231146 22.918642 -154.633499 -59.950619 61.746044 91.683487
30 87.624611 14.231146 22.918642 -154.633499 -59.950634 61.746063 91.683487
[R_front_hand02_01]
29 89.356956 14.367283 -19.491137 154.602661 58.302849 63.744389 92.579636
30 89.356956 14.367283 -19.491137 154.602676 58.302864 63.744400 92.579636
[R_front_hand03_01]
29 87.286232 -22.307278 -0.143439 0.162155 -0.423168 -75.767921 90.091743
30 87.286232 -22.307278 -0.143439 0.162155 -0.423168 -75.767921 90.091743
[R_front_hand01_02]
29 71.020905 0.000060 0.000119 0.002323 -0.000334 106.381714 71.020905
30 71.020905 0.000060 0.000119 0.002323 -0.000334 106.381729 71.020905
[R_front_hand02_02]
29 71.020844 -0.000030 -0.000119 0.002323 -0.000334 106.381714 71.020836
30 71.020844 -0.000030 -0.000119 0.002323 -0.000334 106.381729 71.020836
[R_front_hand03_02]
29 71.020905 0.000000 0.000030 0.002323 -0.000334 106.381714 71.020905
30 71.020905 0.000000 0.000030 0.002323 -0.000334 106.381729 71.020905
[null_rope01_connect]
29 328.732483 0.000000 -0.000238 -150.361771 -63.293682 -128.392273 328.732483
30 328.732483 0.000000 -0.000238 -154.483353 -64.791336 -118.914322 328.732483
[Rope1_Seg01]
29 -0.000038 -0.000114 0.000114 51.453094 -5.920848 -121.851601 0.000166
30 -0.000038 -0.000114 0.000114 58.326061 3.719702 -124.035332 0.000166
[Rope1_Seg02]
29 139.999863 -0.000179 0.000000 -7.834181 5.633018 -0.324778 139.999863
30 139.999863 -0.000179 0.000000 -13.111867 4.812355 1.645746 139.999863
[Rope1_Seg03]
29 139.999924 0.000060 -0.000060 -18.308277 8.783912 2.432525 139.999924
30 139.999924 0.000060 -0.000060 -21.358419 6.410111 4.403958 139.999924
[Rope1_Seg04]
29 139.999924 -0.000060 -0.000119 -13.031447 5.606474 1.718350 139.999924
30 139.999924 -0.000060 -0.000119 -20.434704 5.150650 7.596876 139.999924
[Rope1_Seg05]
29 139.999832 0.000119 -0.000060 31.450449 -3.398734 -11.383657 139.999832
30 139.999832 0.000119 -0.000060 25.258810 -0.983292 -11.091636 139.999832
[Rope1_Seg06]
29 139.999954 0.000119 -0.000060 13.575313 -3.403983 -3.164334 139.999954
30 139.999954 0.000119 -0.000060 19.920115 -3.293443 -5.425828 139.999954
[Rope1_Seg07]
29 139.999985 0.000060 0.000000 5.868660 -1.762032 -1.148575 139.999985
30 139.999985 0.000060 0.000000 7.146243 -1.711237 -1.458183 139.999985
[Rope1_Seg09]
29 121.602913 0.000119 -0.000089 -89.793175 -1.359789 0.847147 121.602913
30 121.602913 0.000119 -0.000089 -89.793175 -1.359789 0.847147 121.602913
[L_mid_hand01]
29 103.859421 1.038730 8.195221 130.544373 -67.584534 -38.866943 104.187431
30 103.859421 1.038730 8.195221 130.544373 -67.584534 -38.866943 104.187431
[L_mid_hand02]
29 105.572853 -4.139662 -10.864139 -168.923172 43.409309 -73.498886 106.211075
30 105.572853 -4.139662 -10.864139 -168.923172 43.409321 -73.498909 106.211075
[L_mid_hand03]
29 104.641464 17.579376 -3.913581 -6.012627 17.808174 74.893669 106.179977
30 104.641464 17.579376 -3.913581 -6.012628 17.808178 74.893677 106.179977
[null_rope02_connect]
29 328.732849 0.000179 -0.000119 -134.069382 64.889870 -25.242237 328.732849
30 328.732849 0.000179 -0.000119 -140.208801 68.099243 -35.150642 328.732849
[Rope2_Seg01]
29 0.000108 0.000114 0.000000 34.218433 -4.257238 -46.751720 0.000157
30 0.000114 0.000114 0.000000 29.850967 2.369251 -44.256142 0.000162
[Rope2_Seg02]
29 139.999741 -0.000060 -0.000119 25.775862 -5.176038 -10.833584 139.999756
30 139.999741 -0.000060 -0.000119 34.204647 -6.268890 -10.746115 139.999756
[Rope2_Seg03]
29 140.000107 0.000030 0.000000 2.311865 -3.160041 0.017064 140.000107
30 140.000107 0.000030 0.000000 2.961024 -5.758993 0.932590 140.000107
[Rope2_Seg04]
29 139.999802 0.000000 -0.000060 26.145510 -12.380979 -14.354437 139.999802
30 139.999802 0.000000 -0.000060 17.288486 -9.641468 -7.629787 139.999802
[Rope2_Seg05]
29 139.999985 -0.000060 0.000119 12.391046 -14.110849 -7.304360 139.999985
30 139.999985 -0.000060 0.000119 18.129122 -15.287934 -10.668036 139.999985
[Rope2_Seg06]
29 139.999893 -0.000030 -0.000119 2.664483 -5.578588 -1.391198 139.999893
30 139.999893 -0.000030 -0.000119 4.462904 -8.087183 -2.343456 139.999893
[Rope2_Seg07]
29 139.999893 0.000060 -0.000060 1.268078 -3.344860 -0.668728 139.999893
30 139.999893 0.000060 -0.000060 1.711112 -4.419192 -0.816758 139.999893
[Rope2_Seg09]
29 121.338966 0.000089 -0.000060 33.793236 -1.359788 -0.847141 121.338966
30 121.338966 0.000089 -0.000060 33.793236 -1.359788 -0.847141 121.338966
[R_mid_hand01]
29 104.680779 11.144459 -10.335981 -16.212063 45.237247 70.462852 105.778534
30 104.680779 11.144459 -10.335981 -16.212065 45.237255 70.462868 105.778534
[R_mid_hand02]
29 104.070427 2.443552 8.231699 49.067368 -67.749771 39.286453 104.424065
30 104.070427 2.443552 8.231699 49.067390 -67.749802 39.286472 104.424065
[R_mid_hand03]
29 106.028137 -11.221827 -5.996406 -177.101105 15.551026 -76.585571 106.788818
30 106.028137 -11.221827 -5.996406 -177.101105 15.551029 -76.585594 106.788818
[spine02]
29 129.756927 0.001550 0.000119 0.165856 -4.056015 -10.222168 129.756927
30 129.756927 0.001550 0.000119 0.360061 -4.044798 -12.915060 129.756927
[spine03]
29 78.614037 0.081713 -4.898991 1.783911 3.885838 14.796746 78.766571
30 78.614044 0.081635 -4.898996 1.896495 3.831288 16.473051 78.766579
[pelvis]
29 169.435242 0.051022 0.000000 -0.050188 -0.182395 10.700003 169.435257
30 169.435242 0.051022 0.000000 -0.060465 -0.180225 14.087932 169.435257
[null_rope03_connect]
29 -1.257226 -2.466202 137.391083 162.988373 -89.131371 -94.930428 137.418976
30 -1.257226 -2.466202 137.391083 156.330505 -89.382614 -94.432030 137.418976
[null_rope04_connect]
29 -1.259640 -2.480268 -137.844437 162.988373 -89.131371 -94.930428 137.872513
30 -1.259640 -2.480268 -137.844437 156.330505 -89.382614 -94.432030 137.872513
[Rope3_Seg01]
29 -0.000028 0.000036 0.000011 -138.630722 32.216457 -89.024643 0.000046
30 -0.000029 0.000038 0.000000 -140.076950 36.170135 -89.309982 0.000048
[Rope3_Seg02]
29 139.999924 -0.000119 0.000060 1.144230 1.312149 -5.289516 139.999924
30 139.999924 -0.000119 0.000060 1.243410 1.567528 -5.137258 139.999924
[Rope3_Seg03]
29 139.999924 -0.000119 0.000119 1.115638 1.831708 -8.164099 139.999924
30 139.999924 -0.000119 0.000119 1.208992 2.046692 -7.322749 139.999924
[Rope3_Seg04]
29 139.999924 0.000119 0.000000 -2.058822 5.311239 -28.214163 139.999924
30 139.999924 0.000119 0.000000 -0.625805 5.249755 -23.823618 139.999924
[Rope3_Seg05]
29 139.999924 -0.000238 0.000060 0.985200 -2.949357 15.624304 139.999924
30 139.999924 -0.000238 0.000060 0.339352 0.034529 3.939319 139.999924
[Rope3_Seg06]
29 139.999893 -0.000119 -0.000060 -2.684319 -3.972896 23.224594 139.999893
30 139.999893 -0.000119 -0.000060 -2.208197 -4.219219 24.796276 139.999893
[Rope3_Seg07]
29 139.999771 0.000060 -0.000119 -1.056062 -1.259573 6.099952 139.999771
30 139.999771 0.000060 -0.000119 -0.940615 -1.179552 6.355505 139.999771
[Rope3_Seg08]
29 139.999985 -0.000060 0.000000 -0.443873 -0.718219 3.194906 139.999985
30 139.999985 -0.000060 0.000000 -0.347781 -0.641704 3.203951 139.999985
[Rope3_Seg09]
29 90.185997 -0.000179 -0.000060 89.793228 -1.359877 -0.847183 90.185997
30 90.185997 -0.000179 -0.000060 89.793228 -1.359877 -0.847183 90.185997
[R_rear_hand01]
29 103.366196 -6.073594 -10.757982 -177.714203 24.565960 -73.910950 104.101845
30 103.366196 -6.073594 -10.757982 -177.714203 24.565968 -73.910957 104.101845
[R_rear_hand02]
29 100.509819 12.039542 -7.992327 -12.874829 36.868488 72.167213 101.543350
30 100.509819 12.039542 -7.992327 -12.874833 36.868492 72.167229 101.543350
[R_rear_hand03]
29 101.539970 5.215704 5.435467 71.484581 -71.816628 21.513813 101.819031
30 101.539970 5.215704 5.435467 71.484634 -71.816643 21.513817 101.819031
[Rope4_Seg01]
29 0.000010 -0.000038 -0.000168 43.254673 22.688831 -119.775780 0.000173
30 0.000010 -0.000038 -0.000153 42.574196 26.450735 -120.101746 0.000158
[Rope4_Seg02]
29 139.999985 0.000060 0.000119 0.610664 6.773665 5.926230 139.999985
30 139.999985 0.000060 0.000119 0.544288 6.127578 5.778480 139.999985
[Rope4_Seg03]
29 139.999924 0.000000 -0.000238 0.429471 9.741626 8.508998 139.999924
30 139.999924 0.000000 -0.000238 0.324087 8.948071 8.428265 139.999924
[Rope4_Seg04]
29 139.999985 0.000000 0.000119 -2.488287 23.770880 27.056541 139.999985
30 139.999985 0.000000 0.000119 -2.618406 22.530962 26.529976 139.999985
[Rope4_Seg05]
29 139.999802 -0.000060 -0.000119 0.901894 3.724511 0.901957 139.999802
30 139.999802 -0.000060 -0.000119 -2.513003 6.060863 5.607505 139.999802
[Rope4_Seg06]
29 139.999924 0.000000 0.000060 19.357874 -19.083973 -38.528324 139.999924
30 139.999924 0.000000 0.000060 21.271252 -17.025423 -39.699139 139.999924
[Rope4_Seg07]
29 139.999802 0.000000 0.000000 1.683833 -10.662807 -12.409312 139.999802
30 139.999802 0.000000 0.000000 2.267782 -11.593479 -13.869318 139.999802
[Rope4_Seg08]
29 139.999924 0.000000 0.000119 -1.594586 -3.586511 -4.210125 139.999924
30 139.999924 0.000000 0.000119 -1.538640 -3.655577 -4.334811 139.999924
[Rope4_Seg09]
29 90.185791 0.000060 0.000060 -135.617828 2.228885 0.850567 90.185791
30 90.185791 0.000060 0.000060 -135.617828 2.228885 0.850567 90.185791
[L_rear_hand01]
29 101.696655 -8.392275 -7.654577 -12.874829 -36.868488 107.832764 102.329041
30 101.696655 -8.392275 -7.654577 -12.874833 -36.868492 107.832779 102.329041
[L_rear_hand02]
29 102.726799 -1.568258 5.773216 71.484581 71.816628 158.486160 102.900848
30 102.726799 -1.568258 5.773216 71.484634 71.816643 158.486176 102.900848
[L_rear_hand03]
29 104.552910 9.721220 -10.420293 -177.714203 -24.565960 -106.089035 105.519653
30 104.552910 9.721220 -10.420293 -177.714203 -24.565968 -106.089043 105.519653
